<svg width="18" height="20" viewBox="0 0 18 20" fill="none" xmlns="http://www.w3.org/2000/svg">
<path d="M1.47356 17.2129V11.495C1.47356 9.4731 2.27748 7.53396 3.70845 6.10423C5.13943 4.6745 7.08025 3.87128 9.10396 3.87128C11.1277 3.87128 13.0685 4.6745 14.4995 6.10423C15.9304 7.53396 16.7344 9.4731 16.7344 11.495V17.2129H17.6882V19.1188H0.519761V17.2129H1.47356ZM3.38116 11.495H5.28876C5.28876 10.4841 5.69072 9.51451 6.40621 8.79964C7.12169 8.08477 8.0921 7.68317 9.10396 7.68317V5.77722C7.58618 5.77722 6.13056 6.37964 5.05733 7.45194C3.9841 8.52424 3.38116 9.97859 3.38116 11.495V11.495ZM8.15016 0.0594025H10.0578V2.91831H8.15016V0.0594025ZM16.5226 2.73534L17.8713 4.08284L15.8492 6.10409L14.4996 4.75659L16.5226 2.73534ZM0.336632 4.08284L1.6853 2.73534L3.70831 4.75564L2.36059 6.10505L0.336632 4.08284Z" fill="#C44040"/>
</svg>
