<svg width="24" height="22" viewBox="0 0 24 22" fill="none" xmlns="http://www.w3.org/2000/svg">
<path d="M8.4 0H15.6L18 2.44444H22.8C23.1183 2.44444 23.4235 2.57321 23.6485 2.80243C23.8736 3.03164 24 3.34251 24 3.66667V20.7778C24 21.1019 23.8736 21.4128 23.6485 21.642C23.4235 21.8712 23.1183 22 22.8 22H1.2C0.88174 22 0.576515 21.8712 0.351472 21.642C0.126428 21.4128 0 21.1019 0 20.7778V3.66667C0 3.34251 0.126428 3.03164 0.351472 2.80243C0.576515 2.57321 0.88174 2.44444 1.2 2.44444H6L8.4 0ZM12 19.5556C13.9096 19.5556 15.7409 18.7829 17.0912 17.4077C18.4414 16.0324 19.2 14.1671 19.2 12.2222C19.2 10.2773 18.4414 8.41204 17.0912 7.03677C15.7409 5.66151 13.9096 4.88889 12 4.88889C10.0904 4.88889 8.25909 5.66151 6.90883 7.03677C5.55857 8.41204 4.8 10.2773 4.8 12.2222C4.8 14.1671 5.55857 16.0324 6.90883 17.4077C8.25909 18.7829 10.0904 19.5556 12 19.5556ZM12 17.1111C10.727 17.1111 9.50606 16.596 8.60589 15.6792C7.70571 14.7623 7.2 13.5188 7.2 12.2222C7.2 10.9256 7.70571 9.6821 8.60589 8.76525C9.50606 7.84841 10.727 7.33333 12 7.33333C13.273 7.33333 14.4939 7.84841 15.3941 8.76525C16.2943 9.6821 16.8 10.9256 16.8 12.2222C16.8 13.5188 16.2943 14.7623 15.3941 15.6792C14.4939 16.596 13.273 17.1111 12 17.1111Z" fill="#626262"/>
</svg>
