<svg width="22" height="20" viewBox="0 0 22 20" fill="none" xmlns="http://www.w3.org/2000/svg">
<path d="M1.47539e-06 6.66001C-0.000578415 5.78468 0.169788 4.91783 0.501345 4.1091C0.832902 3.30038 1.31914 2.56565 1.9322 1.94701C2.54527 1.32837 3.27313 0.837961 4.0741 0.503864C4.87508 0.169768 5.73343 -0.00145224 6.6 9.27805e-06H15.4C19.0443 9.27805e-06 22 2.99445 22 6.66001V20H6.6C2.9557 20 1.47539e-06 17.0056 1.47539e-06 13.34V6.66001ZM19.8 17.7778V6.66001C19.7971 5.48279 19.3324 4.35472 18.5077 3.52292C17.6829 2.69112 16.5655 2.2234 15.4 2.22223H6.6C6.02233 2.22077 5.45006 2.33451 4.91601 2.55693C4.38195 2.77935 3.89662 3.10607 3.48784 3.51836C3.07906 3.93065 2.75487 4.42039 2.53388 4.95951C2.31288 5.49862 2.19942 6.0765 2.2 6.66001V13.34C2.20291 14.5172 2.66763 15.6453 3.49234 16.4771C4.31706 17.3089 5.43455 17.7766 6.6 17.7778H19.8ZM13.2 8.8889H15.4V11.1111H13.2V8.8889ZM6.6 8.8889H8.8V11.1111H6.6V8.8889Z" fill="#9DC2FC"/>
</svg>
