<svg width="17" height="17" viewBox="0 0 17 17" fill="none" xmlns="http://www.w3.org/2000/svg">
<path d="M7.55267 9.851L0.333333 11.125V15.6667C0.333333 16.219 0.781049 16.6667 1.33333 16.6667H7.5626C8.18434 16.6667 8.65536 16.1053 8.54741 15.493L7.55267 9.851Z" fill="#8A2BE2"/>
<path d="M16.6667 1.33333C16.6667 0.781048 16.219 0.333333 15.6667 0.333333H9.4362C8.81448 0.333333 8.34345 0.894656 8.45139 1.50694L10.9782 15.8403C11.0624 16.3182 11.4777 16.6667 11.963 16.6667H15.6667C16.219 16.6667 16.6667 16.219 16.6667 15.6667V1.33333Z" fill="#8A2BE2"/>
<path d="M6.0208 1.15955C5.93647 0.68169 5.52126 0.333333 5.03602 0.333333H1.33333C0.781048 0.333333 0.333333 0.781049 0.333333 1.33333V7.5626C0.333333 8.18434 0.894672 8.65536 1.50696 8.54741L6.16404 7.72632C6.70799 7.63042 7.07118 7.11167 6.97519 6.56773L6.0208 1.15955Z" fill="#8A2BE2"/>
</svg>
