<svg width="19" height="19" viewBox="0 0 19 19" fill="none" xmlns="http://www.w3.org/2000/svg">
<path d="M5.02646 17.8828L1.07222e-05 19L1.11721 13.9735C0.381466 12.5974 -0.00233876 11.0605 1.07222e-05 9.49999C1.07222e-05 4.25315 4.25316 0 9.50001 0C14.7469 0 19 4.25315 19 9.49999C19 14.7468 14.7469 19 9.50001 19C7.93949 19.0023 6.40264 18.6185 5.02646 17.8828ZM5.30196 15.8754L5.92231 16.2079C7.02293 16.7961 8.25208 17.1026 9.50001 17.1C11.0031 17.1 12.4725 16.6543 13.7223 15.8192C14.9721 14.9841 15.9463 13.7971 16.5215 12.4084C17.0967 11.0197 17.2472 9.49156 16.954 8.01731C16.6607 6.54305 15.9369 5.18886 14.874 4.12599C13.8111 3.06311 12.4569 2.33928 10.9827 2.04603C9.50844 1.75278 7.98033 1.90329 6.59161 2.47851C5.2029 3.05374 4.01594 4.02785 3.18084 5.27766C2.34574 6.52748 1.90001 7.99686 1.90001 9.49999C1.90001 10.7673 2.20876 11.9871 2.79301 13.0777L3.12456 13.698L2.50231 16.4977L5.30196 15.8754Z" fill="#626262"/>
</svg>
