<svg width="22" height="23" viewBox="0 0 22 23" fill="none" xmlns="http://www.w3.org/2000/svg">
<path d="M4.63158 0C7.74632 0 10.4488 1.74455 11.8071 4.30215C13.1699 2.39545 15.4116 1.15 17.9474 1.15H22V4.025C22 8.1535 18.6305 11.5 14.4737 11.5H12.7368V12.65H18.5263V20.7C18.5263 21.9707 17.49 23 16.2105 23H6.94737C5.66789 23 4.63158 21.9707 4.63158 20.7V12.65H10.4211V10.35H8.10526C3.62884 10.35 0 6.7459 0 2.3V0H4.63158ZM16.2105 14.95H6.94737V20.7H16.2105V14.95ZM19.6842 3.45H17.9474C15.07 3.45 12.7368 5.76725 12.7368 8.625V9.2H14.4737C17.3511 9.2 19.6842 6.88275 19.6842 4.025V3.45ZM4.63158 2.3H2.31579C2.31579 5.47515 4.90832 8.05 8.10526 8.05H10.4211C10.4211 4.87485 7.82853 2.3 4.63158 2.3Z" fill="#8A2BE2" fill-opacity="0.47"/>
</svg>
