<svg width="22" height="22" viewBox="0 0 22 22" fill="none" xmlns="http://www.w3.org/2000/svg">
<path d="M11 22C4.9247 22 0 17.0753 0 11C0 4.9247 4.9247 0 11 0C17.0753 0 22 4.9247 22 11C22 17.0753 17.0753 22 11 22ZM11 19.8C13.3339 19.8 15.5722 18.8729 17.2225 17.2225C18.8729 15.5722 19.8 13.3339 19.8 11C19.8 8.66609 18.8729 6.42778 17.2225 4.77746C15.5722 3.12714 13.3339 2.2 11 2.2C8.66609 2.2 6.42778 3.12714 4.77746 4.77746C3.12714 6.42778 2.2 8.66609 2.2 11C2.2 13.3339 3.12714 15.5722 4.77746 17.2225C6.42778 18.8729 8.66609 19.8 11 19.8ZM15.95 6.05L13.2 13.2L6.05 15.95L8.8 8.8L15.95 6.05ZM11 12.1C11.2917 12.1 11.5715 11.9841 11.7778 11.7778C11.9841 11.5715 12.1 11.2917 12.1 11C12.1 10.7083 11.9841 10.4285 11.7778 10.2222C11.5715 10.0159 11.2917 9.9 11 9.9C10.7083 9.9 10.4285 10.0159 10.2222 10.2222C10.0159 10.4285 9.9 10.7083 9.9 11C9.9 11.2917 10.0159 11.5715 10.2222 11.7778C10.4285 11.9841 10.7083 12.1 11 12.1Z" fill="#1971FB" fill-opacity="0.42"/>
</svg>
