<svg width="38" height="38" viewBox="0 0 38 38" fill="none" xmlns="http://www.w3.org/2000/svg">
<path d="M19 0C19.5039 0 19.9872 0.200178 20.3435 0.556497C20.6998 0.912816 20.9 1.39609 20.9 1.9V7.6C20.9 8.10391 20.6998 8.58718 20.3435 8.9435C19.9872 9.29982 19.5039 9.5 19 9.5C18.4961 9.5 18.0128 9.29982 17.6565 8.9435C17.3002 8.58718 17.1 8.10391 17.1 7.6V1.9C17.1 1.39609 17.3002 0.912816 17.6565 0.556497C18.0128 0.200178 18.4961 0 19 0V0ZM19 28.5C19.5039 28.5 19.9872 28.7002 20.3435 29.0565C20.6998 29.4128 20.9 29.8961 20.9 30.4V36.1C20.9 36.6039 20.6998 37.0872 20.3435 37.4435C19.9872 37.7998 19.5039 38 19 38C18.4961 38 18.0128 37.7998 17.6565 37.4435C17.3002 37.0872 17.1 36.6039 17.1 36.1V30.4C17.1 29.8961 17.3002 29.4128 17.6565 29.0565C18.0128 28.7002 18.4961 28.5 19 28.5V28.5ZM38 19C38 19.5039 37.7998 19.9872 37.4435 20.3435C37.0872 20.6998 36.6039 20.9 36.1 20.9H30.4C29.8961 20.9 29.4128 20.6998 29.0565 20.3435C28.7002 19.9872 28.5 19.5039 28.5 19C28.5 18.4961 28.7002 18.0128 29.0565 17.6565C29.4128 17.3002 29.8961 17.1 30.4 17.1H36.1C36.6039 17.1 37.0872 17.3002 37.4435 17.6565C37.7998 18.0128 38 18.4961 38 19ZM9.5 19C9.5 19.5039 9.29982 19.9872 8.9435 20.3435C8.58718 20.6998 8.10391 20.9 7.6 20.9H1.9C1.39609 20.9 0.912816 20.6998 0.556497 20.3435C0.200178 19.9872 0 19.5039 0 19C0 18.4961 0.200178 18.0128 0.556497 17.6565C0.912816 17.3002 1.39609 17.1 1.9 17.1H7.6C8.10391 17.1 8.58718 17.3002 8.9435 17.6565C9.29982 18.0128 9.5 18.4961 9.5 19ZM32.4349 32.4349C32.0786 32.7911 31.5954 32.9912 31.0916 32.9912C30.5878 32.9912 30.1046 32.7911 29.7483 32.4349L25.7184 28.405C25.3723 28.0467 25.1808 27.5667 25.1851 27.0685C25.1894 26.5704 25.3893 26.0938 25.7415 25.7415C26.0938 25.3893 26.5704 25.1894 27.0685 25.1851C27.5667 25.1808 28.0467 25.3723 28.405 25.7184L32.4349 29.7464C32.6116 29.9229 32.7517 30.1324 32.8473 30.3631C32.9429 30.5937 32.9921 30.841 32.9921 31.0907C32.9921 31.3403 32.9429 31.5876 32.8473 31.8182C32.7517 32.0489 32.6116 32.2584 32.4349 32.4349V32.4349ZM12.2816 12.2816C11.9253 12.6378 11.4421 12.8379 10.9383 12.8379C10.4345 12.8379 9.9513 12.6378 9.595 12.2816L5.567 8.2536C5.21048 7.89733 5.01009 7.41404 5.00992 6.91002C5.00974 6.40601 5.20978 5.92257 5.56605 5.56605C5.92232 5.20953 6.40561 5.00914 6.90963 5.00896C7.41364 5.00879 7.89708 5.20883 8.2536 5.5651L12.2816 9.595C12.6378 9.9513 12.8379 10.4345 12.8379 10.9383C12.8379 11.4421 12.6378 11.9253 12.2816 12.2816V12.2816ZM5.567 32.4349C5.2108 32.0786 5.01071 31.5954 5.01071 31.0916C5.01071 30.5878 5.2108 30.1046 5.567 29.7483L9.5969 25.7184C9.77217 25.5369 9.98182 25.3922 10.2136 25.2926C10.4454 25.193 10.6948 25.1406 10.947 25.1384C11.1993 25.1362 11.4495 25.1843 11.683 25.2798C11.9165 25.3754 12.1287 25.5165 12.3071 25.6948C12.4854 25.8732 12.6265 26.0854 12.7221 26.3189C12.8176 26.5524 12.8657 26.8026 12.8635 27.0549C12.8613 27.3071 12.8089 27.5565 12.7093 27.7883C12.6097 28.0201 12.465 28.2297 12.2835 28.405L8.2555 32.4349C8.07904 32.6116 7.86949 32.7517 7.63884 32.8473C7.40818 32.9429 7.16094 32.9921 6.91125 32.9921C6.66156 32.9921 6.41432 32.9429 6.18366 32.8473C5.95301 32.7517 5.74346 32.6116 5.567 32.4349V32.4349ZM25.7184 12.2816C25.3622 11.9253 25.1621 11.4421 25.1621 10.9383C25.1621 10.4345 25.3622 9.9513 25.7184 9.595L29.7464 5.5651C30.1027 5.20858 30.586 5.00819 31.09 5.00802C31.594 5.00784 32.0774 5.20788 32.4339 5.56415C32.7905 5.92042 32.9909 6.40371 32.991 6.90773C32.9912 7.41174 32.7912 7.89518 32.4349 8.2517L28.405 12.2816C28.0487 12.6378 27.5655 12.8379 27.0617 12.8379C26.5579 12.8379 26.0747 12.6378 25.7184 12.2816V12.2816Z" fill="#C4C4C4"/>
</svg>
