<svg width="25" height="25" viewBox="0 0 25 25" fill="none" xmlns="http://www.w3.org/2000/svg">
<path d="M2.77778 11.25L5.55556 8.47222L13.1944 16.1111L18.0556 11.25L22.2222 15.4167V2.77778H2.77778V11.25ZM1.38889 0H23.6111C23.9795 0 24.3327 0.146329 24.5932 0.406796C24.8537 0.667263 25 1.02053 25 1.38889V23.6111C25 23.9795 24.8537 24.3327 24.5932 24.5932C24.3327 24.8537 23.9795 25 23.6111 25H1.38889C1.02053 25 0.667263 24.8537 0.406796 24.5932C0.146329 24.3327 0 23.9795 0 23.6111V1.38889C0 1.02053 0.146329 0.667263 0.406796 0.406796C0.667263 0.146329 1.02053 0 1.38889 0V0ZM17.3611 9.72222C16.8086 9.72222 16.2787 9.50273 15.888 9.11203C15.4973 8.72133 15.2778 8.19142 15.2778 7.63889C15.2778 7.08635 15.4973 6.55645 15.888 6.16575C16.2787 5.77505 16.8086 5.55556 17.3611 5.55556C17.9136 5.55556 18.4435 5.77505 18.8342 6.16575C19.2249 6.55645 19.4444 7.08635 19.4444 7.63889C19.4444 8.19142 19.2249 8.72133 18.8342 9.11203C18.4435 9.50273 17.9136 9.72222 17.3611 9.72222V9.72222Z" fill="white"/>
</svg>
