<svg width="21" height="22" viewBox="0 0 21 22" fill="none" xmlns="http://www.w3.org/2000/svg">
<path d="M1.96355 9.35868L1.96366 9.35857L10.7135 1.07278C10.7136 1.07274 10.7136 1.07271 10.7137 1.07267C10.7593 1.02957 10.8277 1 10.9098 1C10.992 1 11.0604 1.02957 11.106 1.07267C11.106 1.07271 11.1061 1.07274 11.1061 1.07278L19.856 9.35857L19.8561 9.35868C19.8976 9.39797 19.9098 9.43908 19.9098 9.46935V20.8163C19.9098 20.8489 19.8976 20.8879 19.8561 20.9272C19.8137 20.9674 19.7465 21 19.6598 21H14.4098V13.7141V12.7141H13.4098H8.40982H7.40982V13.7141V21H2.15982C2.07313 21 2.00597 20.9674 1.96353 20.9272C1.92203 20.8879 1.90982 20.8489 1.90982 20.8163V9.46935C1.90982 9.43907 1.92205 9.39797 1.96355 9.35868Z" stroke="#1971FB" stroke-opacity="0.26" stroke-width="2"/>
</svg>
