<svg width="24" height="22" viewBox="0 0 24 22" fill="none" xmlns="http://www.w3.org/2000/svg">
<path d="M11.2961 3.08868L12 3.78624L12.7039 3.08868C13.7831 2.01921 15.5124 1 17.4 1C20.441 1 23 3.47143 23 7.13514C23 10.907 20.9661 13.9315 18.4423 16.2896C16.2045 18.3805 13.6837 19.855 12.0688 20.7996C12.0457 20.8131 12.0228 20.8265 12 20.8398C11.9772 20.8265 11.9543 20.8131 11.9312 20.7996C10.3163 19.855 7.79553 18.3805 5.55772 16.2896C3.03393 13.9315 1 10.907 1 7.13514C1 3.47603 3.60026 1 6.6 1C8.4876 1 10.2169 2.01921 11.2961 3.08868Z" stroke="#8A2BE2" stroke-width="2"/>
</svg>
