<svg width="22" height="25" viewBox="0 0 22 25" fill="none" xmlns="http://www.w3.org/2000/svg">
<path d="M21.5 16.667L21.9 17.2C21.9557 17.2743 21.9896 17.3626 21.998 17.4551C22.0063 17.5476 21.9887 17.6406 21.9472 17.7236C21.9057 17.8067 21.8419 17.8765 21.7629 17.9253C21.6839 17.9741 21.5929 18 21.5 18H5.5C5.40714 18 5.31612 17.9741 5.23713 17.9253C5.15815 17.8765 5.09431 17.8067 5.05279 17.7236C5.01126 17.6406 4.99368 17.5476 5.00202 17.4551C5.01036 17.3626 5.04429 17.2743 5.1 17.2L5.5 16.667V8C5.5 5.87827 6.34286 3.84344 7.84315 2.34315C9.34344 0.842855 11.3783 0 13.5 0C15.6217 0 17.6566 0.842855 19.1569 2.34315C20.6571 3.84344 21.5 5.87827 21.5 8V16.667ZM11 19H16C16 19.663 15.7366 20.2989 15.2678 20.7678C14.7989 21.2366 14.163 21.5 13.5 21.5C12.837 21.5 12.2011 21.2366 11.7322 20.7678C11.2634 20.2989 11 19.663 11 19V19Z" fill="#393939"/>
<circle cx="7" cy="18" r="6.5" fill="#8A2BE2" stroke="white"/>
</svg>
