<svg width="19" height="19" viewBox="0 0 19 19" fill="none" xmlns="http://www.w3.org/2000/svg">
<path d="M11.5159 14.8996L6.64591 12.2435C6.17844 12.7075 5.58406 13.0228 4.93769 13.1495C4.29132 13.2762 3.6219 13.2087 3.01383 12.9555C2.40577 12.7023 1.88627 12.2748 1.52084 11.7268C1.1554 11.1788 0.960396 10.5348 0.960396 9.87615C0.960396 9.21748 1.1554 8.57355 1.52084 8.02555C1.88627 7.47755 2.40577 7.05 3.01383 6.79681C3.6219 6.54363 4.29132 6.47613 4.93769 6.60284C5.58406 6.72955 6.17844 7.04479 6.64591 7.50882L11.5159 4.85272C11.3489 4.06908 11.4695 3.25149 11.8558 2.54948C12.242 1.84747 12.868 1.30795 13.6193 1.02957C14.3707 0.75119 15.1971 0.752561 15.9475 1.03343C16.6979 1.3143 17.3221 1.8559 17.7061 2.55919C18.09 3.26248 18.2079 4.08046 18.0383 4.86354C17.8686 5.64663 17.4228 6.34249 16.7823 6.82388C16.1418 7.30527 15.3494 7.54001 14.55 7.48518C13.7506 7.43036 12.9977 7.08962 12.4289 6.52529L7.55892 9.18139C7.65606 9.63947 7.65606 10.1128 7.55892 10.5709L12.4289 13.227C12.9977 12.6627 13.7506 12.322 14.55 12.2671C15.3494 12.2123 16.1418 12.447 16.7823 12.9284C17.4228 13.4098 17.8686 14.1057 18.0383 14.8888C18.2079 15.6719 18.09 16.4898 17.7061 17.1931C17.3221 17.8964 16.6979 18.438 15.9475 18.7189C15.1971 18.9997 14.3707 19.0011 13.6193 18.7227C12.868 18.4444 12.242 17.9048 11.8558 17.2028C11.4695 16.5008 11.3489 15.6832 11.5159 14.8996V14.8996Z" fill="#393939"/>
</svg>
