<svg width="18" height="20" viewBox="0 0 18 20" fill="none" xmlns="http://www.w3.org/2000/svg">
<path d="M9.6123 12.3273V19.5H0.58416C0.58388 18.3696 0.835974 17.2541 1.32113 16.239C1.80628 15.2239 2.51161 14.3361 3.38308 13.6438C4.25455 12.9514 5.26902 12.4728 6.34877 12.2446C7.42851 12.0164 8.54487 12.0447 9.6123 12.3273V12.3273ZM7.80667 11.1683C4.81384 11.1683 2.38979 8.6827 2.38979 5.61386C2.38979 2.54502 4.81384 0.0594025 7.80667 0.0594025C10.7995 0.0594025 13.2236 2.54502 13.2236 5.61386C13.2236 8.6827 10.7995 11.1683 7.80667 11.1683ZM13.2236 14.8713V12.0941H15.0292V14.8713H17.7376V16.7228H15.0292V19.5H13.2236V16.7228H10.5151V14.8713H13.2236Z" fill="#393939"/>
</svg>
