<svg width="74" height="26" viewBox="0 0 74 26" fill="none" xmlns="http://www.w3.org/2000/svg">
<path d="M30.2476 13.3715C30.2476 18.7012 27.0082 23.2597 22.4266 25.1134C21.4751 23.5892 20.8133 21.866 20.5181 20.0205C23.2134 19.0296 25.1456 16.3436 25.1456 13.1856C25.1456 9.18552 22.0455 5.94279 18.2214 5.94279C17.703 5.94279 17.198 6.00238 16.7121 6.11536C15.5661 4.31537 13.9686 2.97277 12.161 2.15345C13.8663 1.25213 15.8033 0.742911 17.857 0.742911C24.7001 0.742911 30.2476 6.3969 30.2476 13.3715Z" fill="#1971FB"/>
<path d="M2.45204 3.54018L3.27522 4.99336C4.54526 4.24602 5.91768 3.84313 7.28835 3.75627L7.28858 3.71428C7.28858 3.13604 7.15893 2.58866 6.92765 2.10069C5.39703 2.23523 3.8704 2.70557 2.45204 3.54018Z" fill="#1971FB"/>
<path fill-rule="evenodd" clip-rule="evenodd" d="M0 3.71428C0 1.66294 1.6316 0 3.64429 0C5.08963 0 6.33845 0.85756 6.92765 2.10069C5.39703 2.23523 3.8704 2.70557 2.45204 3.54018L3.27522 4.99336C4.54526 4.24602 5.91768 3.84313 7.28835 3.75627C7.26626 5.78826 5.64322 7.42856 3.64429 7.42856C1.6316 7.42856 0 5.76562 0 3.71428ZM9.64263 3.91676C7.08104 6.23034 5.46642 9.60872 5.46642 13.3715C5.46642 20.346 11.0139 26 17.857 26L17.8627 26C16.9443 24.1774 16.3235 22.1796 16.0641 20.07C13.2963 19.1216 11.2973 16.3978 11.2973 13.1856C11.2973 10.5056 12.6888 8.16562 14.7573 6.91299C15.1506 7.36941 15.5059 7.87179 15.8153 8.418L17.2411 7.57901C15.0704 3.74699 10.985 1.74404 6.92765 2.10069C7.15893 2.58866 7.28858 3.13604 7.28858 3.71428L7.28835 3.75627C8.0804 3.70607 8.87186 3.7614 9.64263 3.91676ZM9.64263 3.91676C11.5865 4.30859 13.3988 5.33667 14.7573 6.91299C15.0345 6.74513 15.3239 6.59679 15.6236 6.46978C14.4495 4.74745 12.8016 3.5229 10.9663 2.87431C10.5019 3.19161 10.0597 3.54007 9.64263 3.91676Z" fill="#1971FB"/>
<path d="M15.6236 6.46978C14.4495 4.74745 12.8016 3.5229 10.9663 2.87431C10.5019 3.19161 10.0597 3.54007 9.64263 3.91676C11.5865 4.30859 13.3988 5.33667 14.7573 6.91299C15.0345 6.74513 15.3239 6.59679 15.6236 6.46978Z" fill="#1971FB"/>
<path d="M35.9168 6.42489C35.4559 6.42489 35.0949 6.30933 34.8337 6.07822C34.5879 5.84711 34.465 5.52355 34.465 5.10755C34.465 4.22933 34.9489 3.79022 35.9168 3.79022C36.8848 3.79022 37.3687 4.22933 37.3687 5.10755C37.3687 5.98578 36.8848 6.42489 35.9168 6.42489ZM35.9168 20.3609C35.1487 20.3609 34.7646 19.9372 34.7646 19.0898V10.0764C34.7646 9.24444 35.1487 8.82844 35.9168 8.82844C36.7004 8.82844 37.0922 9.24444 37.0922 10.0764V19.0898C37.0922 19.9372 36.7004 20.3609 35.9168 20.3609Z" fill="#1971FB"/>
<path d="M41.8204 20.384C41.0214 20.384 40.622 19.9757 40.622 19.1591V5.15378C40.622 4.33718 41.0291 3.92889 41.8434 3.92889H47.3513C49.1028 3.92889 50.4548 4.35259 51.4074 5.2C52.36 6.032 52.8362 7.20296 52.8362 8.71289C52.8362 9.93007 52.5136 10.9316 51.8683 11.7173C51.223 12.4877 50.3089 13.0039 49.1259 13.2658C49.8633 13.5123 50.4856 14.1055 50.9926 15.0453L52.9745 18.7431C53.205 19.1591 53.2511 19.5366 53.1128 19.8756C52.9745 20.2145 52.6595 20.384 52.1679 20.384C51.8299 20.384 51.5533 20.3147 51.3383 20.176C51.1232 20.0373 50.9388 19.8139 50.7852 19.5058L48.3654 15.0222C48.0427 14.4213 47.6663 14.0207 47.2361 13.8204C46.8213 13.6047 46.2835 13.4969 45.6229 13.4969H43.0187V19.1591C43.0187 19.9757 42.6193 20.384 41.8204 20.384ZM43.0187 11.6942H46.9596C49.3256 11.6942 50.5086 10.7159 50.5086 8.75911C50.5086 6.81778 49.3256 5.84711 46.9596 5.84711H43.0187V11.6942Z" fill="#1971FB"/>
<path d="M57.4168 20.384C56.6178 20.384 56.2184 19.9757 56.2184 19.1591V4.992C56.2184 4.17541 56.6178 3.76711 57.4168 3.76711C58.2157 3.76711 58.6151 4.17541 58.6151 4.992V19.1591C58.6151 19.9757 58.2157 20.384 57.4168 20.384Z" fill="#1971FB"/>
<path d="M67.8007 20.4302C66.7406 20.4302 65.7189 20.307 64.7356 20.0604C63.7677 19.8139 62.9227 19.4441 62.2006 18.9511C61.9086 18.7508 61.732 18.512 61.6705 18.2347C61.6091 17.9419 61.6321 17.68 61.7396 17.4489C61.8626 17.2024 62.0392 17.0329 62.2697 16.9404C62.5155 16.848 62.7921 16.9019 63.0993 17.1022C63.7907 17.549 64.5205 17.8803 65.2887 18.096C66.0569 18.2963 66.8942 18.3964 67.8007 18.3964C69.1066 18.3964 70.0669 18.1653 70.6814 17.7031C71.3113 17.2255 71.6263 16.6092 71.6263 15.8542C71.6263 15.2379 71.4035 14.7526 70.958 14.3982C70.5124 14.0284 69.7673 13.7357 68.7225 13.52L66.2566 13.0116C64.7971 12.7034 63.7062 12.195 62.9841 11.4862C62.2774 10.7775 61.924 9.82222 61.924 8.62044C61.924 7.64978 62.1775 6.79467 62.6845 6.05511C63.2069 5.31555 63.929 4.74548 64.8508 4.34489C65.7727 3.92889 66.8328 3.72089 68.0311 3.72089C68.9837 3.72089 69.8748 3.84415 70.7045 4.09067C71.5495 4.33718 72.3023 4.71467 72.9629 5.22311C73.2241 5.408 73.3778 5.63141 73.4239 5.89333C73.4699 6.15526 73.4315 6.40178 73.3086 6.63289C73.1857 6.84859 73.0014 6.99496 72.7555 7.072C72.5097 7.14904 72.2255 7.08741 71.9028 6.88711C71.3036 6.48652 70.6891 6.20148 70.0592 6.032C69.4293 5.84711 68.7456 5.75467 68.0081 5.75467C66.8712 5.75467 65.9647 6.00889 65.2887 6.51733C64.628 7.02578 64.2977 7.7037 64.2977 8.55111C64.2977 9.19822 64.5051 9.71437 64.92 10.0996C65.3348 10.4847 66.0262 10.7775 66.9941 10.9778L69.4369 11.4862C70.9733 11.8098 72.1179 12.3105 72.8708 12.9884C73.6236 13.651 74 14.5523 74 15.6924C74 16.6477 73.7465 17.4797 73.2395 18.1884C72.7325 18.8972 72.0181 19.4519 71.0962 19.8524C70.1744 20.2376 69.0759 20.4302 67.8007 20.4302Z" fill="#1971FB"/>
</svg>
