<svg width="317" height="61" viewBox="0 0 317 61" fill="none" xmlns="http://www.w3.org/2000/svg">
<path d="M80.6796 60.047C77.9047 60.047 76.5172 58.661 76.5172 55.8892V10.4566C76.5172 7.63443 77.9299 6.22332 80.7553 6.22332H107.697C109.867 6.22332 110.952 7.25646 110.952 9.32272C110.952 11.4898 109.867 12.5733 107.697 12.5733H84.3879V29.5822H106.184C108.353 29.5822 109.438 30.6153 109.438 32.6816C109.438 34.8486 108.353 35.9322 106.184 35.9322H84.3879V55.8892C84.3879 58.661 83.1518 60.047 80.6796 60.047Z" fill="#8A2BE2"/>
<path d="M131.615 60.1981C127.679 60.1981 124.702 59.0642 122.684 56.7964C120.717 54.5285 119.733 51.2023 119.733 46.8178V9.54951C119.733 6.97928 120.994 5.69416 123.517 5.69416C126.09 5.69416 127.376 6.97928 127.376 9.54951V46.3643C127.376 51.3535 129.395 53.8482 133.431 53.8482C133.885 53.8482 134.289 53.823 134.642 53.7726C134.995 53.7222 135.348 53.697 135.701 53.697C136.307 53.6466 136.736 53.823 136.988 54.2261C137.24 54.5789 137.366 55.3349 137.366 56.494C137.366 58.5602 136.408 59.7446 134.49 60.047C133.986 60.0973 133.481 60.1225 132.977 60.1225C132.523 60.1729 132.069 60.1981 131.615 60.1981Z" fill="#8A2BE2"/>
<path d="M166.191 60.1981C161.095 60.1981 156.68 59.0894 152.947 56.872C149.213 54.6041 146.312 51.4291 144.244 47.347C142.225 43.2145 141.216 38.3764 141.216 32.8328C141.216 27.2387 142.225 22.4007 144.244 18.3185C146.312 14.2364 149.213 11.0866 152.947 8.86915C156.68 6.6517 161.095 5.54297 166.191 5.54297C171.236 5.54297 175.626 6.6517 179.359 8.86915C183.143 11.0866 186.044 14.2364 188.062 18.3185C190.131 22.4007 191.165 27.2135 191.165 32.7572C191.165 38.3512 190.131 43.2145 188.062 47.347C186.044 51.4291 183.143 54.6041 179.359 56.872C175.626 59.0894 171.236 60.1981 166.191 60.1981ZM166.191 53.3946C171.488 53.3946 175.6 51.6055 178.527 48.0273C181.503 44.3988 182.992 39.3339 182.992 32.8328C182.992 26.3316 181.529 21.2919 178.602 17.7138C175.676 14.1356 171.539 12.3465 166.191 12.3465C160.893 12.3465 156.756 14.1356 153.779 17.7138C150.853 21.2919 149.39 26.3316 149.39 32.8328C149.39 39.3339 150.853 44.3988 153.779 48.0273C156.756 51.6055 160.893 53.3946 166.191 53.3946Z" fill="#8A2BE2"/>
<path d="M205.65 60.047C203.026 60.047 201.714 58.7114 201.714 56.0404V10.2299C201.714 7.55884 203.051 6.22332 205.725 6.22332H223.813C229.564 6.22332 234.004 7.60923 237.132 10.381C240.26 13.1025 241.824 16.9326 241.824 21.8715C241.824 25.8528 240.765 29.1286 238.646 31.6988C236.527 34.2187 233.525 35.907 229.64 36.7637C232.062 37.57 234.105 39.5103 235.77 42.5845L242.279 54.6797C243.035 56.0404 243.187 57.2751 242.733 58.3839C242.279 59.4926 241.244 60.047 239.63 60.047C238.52 60.047 237.612 59.8202 236.905 59.3666C236.199 58.913 235.593 58.1823 235.089 57.1743L227.143 42.5089C226.083 40.5434 224.847 39.2331 223.434 38.578C222.072 37.8724 220.306 37.5196 218.137 37.5196H209.585V56.0404C209.585 58.7114 208.273 60.047 205.65 60.047ZM209.585 31.6232H222.526C230.296 31.6232 234.181 28.423 234.181 22.0227C234.181 15.6727 230.296 12.4977 222.526 12.4977H209.585V31.6232Z" fill="#8A2BE2"/>
<path d="M256.866 60.047C254.243 60.047 252.931 58.7114 252.931 56.0404V9.70069C252.931 7.02967 254.243 5.69416 256.866 5.69416C259.49 5.69416 260.802 7.02967 260.802 9.70069V56.0404C260.802 58.7114 259.49 60.047 256.866 60.047Z" fill="#8A2BE2"/>
<path d="M276.89 60.047C274.417 60.047 273.181 58.787 273.181 56.2672V9.6251C273.181 8.36518 273.484 7.40764 274.089 6.75249C274.745 6.04694 275.603 5.69416 276.663 5.69416C277.571 5.69416 278.277 5.87055 278.782 6.22332C279.286 6.5257 279.841 7.10526 280.447 7.96201L309.735 46.5154V9.39831C309.735 6.92888 310.946 5.69416 313.367 5.69416C315.789 5.69416 317 6.92888 317 9.39831V56.3428C317 57.5019 316.697 58.4091 316.092 59.0642C315.537 59.7194 314.78 60.047 313.821 60.047C312.863 60.047 312.106 59.8706 311.551 59.5178C310.996 59.165 310.391 58.5603 309.735 57.7035L280.447 19.0745V56.2672C280.447 58.787 279.261 60.047 276.89 60.047Z" fill="#8A2BE2"/>
<path d="M30.0603 32.8704C30.0579 8.27555 0 11.0083 0 11.0083C2.55286 14.8403 3.91332 25.8368 4.63833 36.463C5.55014 49.8271 16.6452 60.198 30.0404 60.198H30.0803C43.4755 60.198 54.5706 49.8271 55.4824 36.463C56.2074 25.8368 57.5678 14.8403 60.1207 11.0083C60.1207 11.0083 30.0579 8.27555 30.0603 32.8704Z" fill="#8A2BE2"/>
<path d="M15.2347 12.785L30.0605 0.0771484L45.3325 12.64" fill="#8A2BE2"/>
</svg>
