<svg width="731" height="1102" viewBox="0 0 731 1102" fill="none" xmlns="http://www.w3.org/2000/svg">
<rect x="1.93896" y="0.652527" width="727.122" height="116.34" fill="white"/>
<rect x="1.93896" y="126.687" width="727.122" height="261.764" fill="white"/>
<rect y="398.146" width="727.122" height="255.947" fill="#FDFDFD"/>
<rect x="34.9019" y="16.1645" width="77.5597" height="77.5597" rx="38.7798" fill="#E8E8E8"/>
<rect x="131.852" y="16.1645" width="564.247" height="77.5597" rx="38.7798" fill="#E8E8E8"/>
<rect x="21.3289" y="196.491" width="151.241" height="151.241" rx="75.6207" fill="#E8E8E8"/>
<rect x="201.655" y="198.43" width="151.241" height="151.241" rx="75.6207" fill="#E8E8E8"/>
<rect x="381.981" y="198.43" width="151.241" height="151.241" rx="75.6207" fill="#E8E8E8"/>
<rect x="562.308" y="196.491" width="151.241" height="151.241" rx="75.6207" fill="#E8E8E8"/>
<rect x="21.3289" y="144.138" width="310.239" height="23.2679" fill="#E8E8E8"/>
<rect x="19.3899" y="409.78" width="71.7427" height="71.7427" rx="35.8714" fill="#E8E8E8"/>
<rect x="1.93896" y="652.154" width="729.061" height="449.846" fill="#E8E8E8"/>
<rect x="110.522" y="415.597" width="310.239" height="27.1459" fill="#E8E8E8"/>
<rect x="19.3899" y="508.668" width="542.918" height="34.9019" fill="#E8E8E8"/>
<rect x="110.522" y="456.316" width="310.239" height="19.3899" fill="#E8E8E8"/>
<rect x="19.3899" y="562.96" width="659.257" height="19.3899" fill="#E8E8E8"/>
<rect x="19.3899" y="592.045" width="659.257" height="19.3899" fill="#E8E8E8"/>
</svg>
